REM DIRINDEX 1\2,1\3
REM DIRNAME folder01,folder02,folder03
TITLE ""
FILE "2661-2680.mp3" MP3
  TRACK 01 AUDIO
    TITLE "0:"
    INDEX 01 00:00:00
  TRACK 02 AUDIO
    TITLE "2:cjc039_4321"
    INDEX 01 00:00:29
  TRACK 03 AUDIO
    TITLE "0:"
    INDEX 01 00:01:28
  TRACK 04 AUDIO
    TITLE "3:cjc039_4322"
    INDEX 01 00:02:10
  TRACK 05 AUDIO
    TITLE "0:"
    INDEX 01 00:05:50
  TRACK 06 AUDIO
    TITLE "2:cjc039_4323"
    INDEX 01 00:07:17
  TRACK 07 AUDIO
    TITLE "0:"
    INDEX 01 00:08:64
  TRACK 08 AUDIO
    TITLE "3:cjc039_4324"
    INDEX 01 00:09:34
  TRACK 09 AUDIO
    TITLE "0:"
    INDEX 01 00:13:71
  TRACK 10 AUDIO
    TITLE "2:cjc039_4325"
    INDEX 01 00:15:48
  TRACK 11 AUDIO
    TITLE "0:"
    INDEX 01 00:16:59
  TRACK 12 AUDIO
    TITLE "3:cjc039_4326"
    INDEX 01 00:17:39
  TRACK 13 AUDIO
    TITLE "0:"
    INDEX 01 00:22:58
  TRACK 14 AUDIO
    TITLE "2:cjc039_4327"
    INDEX 01 00:24:33
  TRACK 15 AUDIO
    TITLE "0:"
    INDEX 01 00:25:58
  TRACK 16 AUDIO
    TITLE "3:cjc039_4328"
    INDEX 01 00:26:34
  TRACK 17 AUDIO
    TITLE "0:"
    INDEX 01 00:30:73
  TRACK 18 AUDIO
    TITLE "2:cjc039_4329"
    INDEX 01 00:32:48
  TRACK 19 AUDIO
    TITLE "0:"
    INDEX 01 00:33:46
  TRACK 20 AUDIO
    TITLE "3:cjc039_4330"
    INDEX 01 00:34:26
  TRACK 21 AUDIO
    TITLE "0:"
    INDEX 01 00:37:67
  TRACK 22 AUDIO
    TITLE "2:cjc039_4331"
    INDEX 01 00:39:43
  TRACK 23 AUDIO
    TITLE "0:"
    INDEX 01 00:40:64
  TRACK 24 AUDIO
    TITLE "3:cjc039_4332"
    INDEX 01 00:41:38
  TRACK 25 AUDIO
    TITLE "0:"
    INDEX 01 00:44:73
  TRACK 26 AUDIO
    TITLE "2:cjc039_4333"
    INDEX 01 00:46:49
  TRACK 27 AUDIO
    TITLE "0:"
    INDEX 01 00:47:74
  TRACK 28 AUDIO
    TITLE "3:cjc039_4334"
    INDEX 01 00:48:49
  TRACK 29 AUDIO
    TITLE "0:"
    INDEX 01 00:52:43
  TRACK 30 AUDIO
    TITLE "2:cjc039_4335"
    INDEX 01 00:54:23
  TRACK 31 AUDIO
    TITLE "0:"
    INDEX 01 00:55:69
  TRACK 32 AUDIO
    TITLE "3:cjc039_4336"
    INDEX 01 00:56:45
  TRACK 33 AUDIO
    TITLE "0:"
    INDEX 01 01:01:05
  TRACK 34 AUDIO
    TITLE "2:cjc039_4337"
    INDEX 01 01:02:54
  TRACK 35 AUDIO
    TITLE "0:"
    INDEX 01 01:04:01
  TRACK 36 AUDIO
    TITLE "3:cjc039_4338"
    INDEX 01 01:04:52
  TRACK 37 AUDIO
    TITLE "0:"
    INDEX 01 01:07:70
  TRACK 38 AUDIO
    TITLE "2:cjc039_4339"
    INDEX 01 01:09:44
  TRACK 39 AUDIO
    TITLE "0:"
    INDEX 01 01:10:65
  TRACK 40 AUDIO
    TITLE "3:cjc039_4340"
    INDEX 01 01:11:43
  TRACK 41 AUDIO
    TITLE "0:"
    INDEX 01 01:15:56
  TRACK 42 AUDIO
    TITLE "2:cjc039_4341"
    INDEX 01 01:17:30
  TRACK 43 AUDIO
    TITLE "0:"
    INDEX 01 01:18:29
  TRACK 44 AUDIO
    TITLE "3:cjc039_4342"
    INDEX 01 01:19:09
  TRACK 45 AUDIO
    TITLE "0:"
    INDEX 01 01:22:56
  TRACK 46 AUDIO
    TITLE "2:cjc039_4343"
    INDEX 01 01:24:26
  TRACK 47 AUDIO
    TITLE "0:"
    INDEX 01 01:25:62
  TRACK 48 AUDIO
    TITLE "3:cjc039_4344"
    INDEX 01 01:26:40
  TRACK 49 AUDIO
    TITLE "0:"
    INDEX 01 01:31:32
  TRACK 50 AUDIO
    TITLE "2:cjc039_4345"
    INDEX 01 01:33:13
  TRACK 51 AUDIO
    TITLE "0:"
    INDEX 01 01:34:38
  TRACK 52 AUDIO
    TITLE "3:cjc039_4346"
    INDEX 01 01:35:24
  TRACK 53 AUDIO
    TITLE "0:"
    INDEX 01 01:38:49
  TRACK 54 AUDIO
    TITLE "2:cjc039_4347"
    INDEX 01 01:40:27
  TRACK 55 AUDIO
    TITLE "0:"
    INDEX 01 01:41:32
  TRACK 56 AUDIO
    TITLE "3:cjc039_4348"
    INDEX 01 01:42:06
  TRACK 57 AUDIO
    TITLE "0:"
    INDEX 01 01:46:37
  TRACK 58 AUDIO
    TITLE "2:cjc039_4349"
    INDEX 01 01:48:12
  TRACK 59 AUDIO
    TITLE "0:"
    INDEX 01 01:49:32
  TRACK 60 AUDIO
    TITLE "3:cjc039_4350"
    INDEX 01 01:50:07
  TRACK 61 AUDIO
    TITLE "0:"
    INDEX 01 01:53:33
  TRACK 62 AUDIO
    TITLE "2:cjc039_4351"
    INDEX 01 01:55:09
  TRACK 63 AUDIO
    TITLE "0:"
    INDEX 01 01:56:37
  TRACK 64 AUDIO
    TITLE "3:cjc039_4352"
    INDEX 01 01:57:19
  TRACK 65 AUDIO
    TITLE "0:"
    INDEX 01 02:01:17
  TRACK 66 AUDIO
    TITLE "2:cjc039_4353"
    INDEX 01 02:02:71
  TRACK 67 AUDIO
    TITLE "0:"
    INDEX 01 02:04:12
  TRACK 68 AUDIO
    TITLE "3:cjc039_4354"
    INDEX 01 02:04:66
  TRACK 69 AUDIO
    TITLE "0:"
    INDEX 01 02:08:29
  TRACK 70 AUDIO
    TITLE "2:cjc039_4355"
    INDEX 01 02:10:10
  TRACK 71 AUDIO
    TITLE "0:"
    INDEX 01 02:11:35
  TRACK 72 AUDIO
    TITLE "3:cjc039_4356"
    INDEX 01 02:12:11
  TRACK 73 AUDIO
    TITLE "0:"
    INDEX 01 02:16:50
  TRACK 74 AUDIO
    TITLE "2:cjc039_4357"
    INDEX 01 02:18:23
  TRACK 75 AUDIO
    TITLE "0:"
    INDEX 01 02:19:46
  TRACK 76 AUDIO
    TITLE "3:cjc039_4358"
    INDEX 01 02:20:16
  TRACK 77 AUDIO
    TITLE "0:"
    INDEX 01 02:23:68
  TRACK 78 AUDIO
    TITLE "2:cjc039_4359"
    INDEX 01 02:25:39
  TRACK 79 AUDIO
    TITLE "0:"
    INDEX 01 02:26:62
  TRACK 80 AUDIO
    TITLE "3:cjc039_4360"
    INDEX 01 02:27:42
  TRACK 81 AUDIO
    TITLE "0:"
    INDEX 01 02:31:20
